<svg width="218" height="250" viewBox="0 0 218 250" fill="none" xmlns="http://www.w3.org/2000/svg">
<path opacity="0.8" d="M109.297 0C121.723 0.000236564 131.594 10.4455 130.893 22.8516L128.808 59.7422C129.428 58.7398 130.147 57.7798 130.966 56.877L156.577 28.6436C164.901 19.4681 179.215 19.1459 187.943 27.9375C196.697 36.7554 196.239 51.1193 186.939 59.3604L161.574 81.8389L195.242 80.083C207.614 79.4375 218 89.2947 218 101.684C218 114.11 207.555 123.981 195.148 123.28L156.855 121.115C156.502 121.095 156.152 121.065 155.804 121.026C156.711 121.595 157.585 122.244 158.411 122.977L186.939 148.259C196.239 156.5 196.698 170.864 187.943 179.682C179.215 188.473 164.901 188.151 156.577 178.976L130.966 150.742C130.147 149.839 129.428 148.879 128.808 147.876L130.893 184.768C131.594 197.174 121.723 207.619 109.297 207.619C96.9079 207.619 87.0498 197.233 87.6953 184.861L89.6758 146.886C88.9397 148.249 88.0298 149.546 86.9443 150.742L61.333 178.976C53.0096 188.151 38.6948 188.473 29.9668 179.682C21.2126 170.864 21.6714 156.5 30.9707 148.259L59.499 122.977C60.3194 122.25 61.1857 121.604 62.0859 121.039C61.7743 121.072 61.4605 121.097 61.1445 121.115L22.8516 123.28C10.4454 123.981 0 114.11 0 101.684C9.23844e-05 89.2947 10.3857 79.4375 22.7578 80.083L56.3301 81.834L30.9707 59.3604C21.6715 51.1193 21.2127 36.7554 29.9668 27.9375C38.6948 19.1459 53.0096 19.4681 61.333 28.6436L86.9443 56.877C88.0296 58.0733 88.9398 59.3693 89.6758 60.7324L87.6953 22.7578C87.0498 10.3857 96.9079 0 109.297 0ZM92.0029 69.4062C92.0166 69.4 92.0303 69.3939 92.0439 69.3877C92.0292 69.3607 92.0146 69.3337 92 69.3066C92.0012 69.3398 92.0019 69.373 92.0029 69.4062Z" fill="#FFD78A"/>
<path opacity="0.5" d="M149.008 247.126C155.591 241.621 165.16 230.607 150.772 230.59C132.788 230.569 140.95 221.935 148.437 218.965" stroke="#FFD78A" stroke-width="5" stroke-linecap="round"/>
</svg>
