<svg width="20" height="20" viewBox="0 0 20 20" fill="none" xmlns="http://www.w3.org/2000/svg">
<path d="M0 4C0 1.79086 1.79086 0 4 0H16C18.2091 0 20 1.79086 20 4V16C20 18.2091 18.2091 20 16 20H4C1.79086 20 0 18.2091 0 16V4Z" fill="#FF9E9E"/>
<path d="M14.7709 6.20257C14.7048 6.13838 14.6261 6.08744 14.5394 6.05267C14.4527 6.0179 14.3597 6 14.2657 6C14.1718 6 14.0788 6.0179 13.9921 6.05267C13.9054 6.08744 13.8267 6.13838 13.7605 6.20257L8.45949 11.3114L6.23235 9.16101C6.16367 9.09716 6.08259 9.04695 5.99375 9.01326C5.90491 8.97956 5.81004 8.96304 5.71457 8.96463C5.61909 8.96622 5.52488 8.98589 5.4373 9.02252C5.34972 9.05916 5.2705 9.11203 5.20416 9.17813C5.13782 9.24423 5.08565 9.32226 5.05064 9.40777C5.01563 9.49327 4.99846 9.58457 5.00011 9.67646C5.00176 9.76835 5.0222 9.85903 5.06027 9.94332C5.09833 10.0276 5.15327 10.1039 5.22195 10.1677L7.95429 12.7974C8.02044 12.8616 8.09914 12.9126 8.18585 12.9473C8.27256 12.9821 8.36556 13 8.45949 13C8.55343 13 8.64643 12.9821 8.73314 12.9473C8.81985 12.9126 8.89855 12.8616 8.96469 12.7974L14.7709 7.20926C14.8432 7.14513 14.9008 7.0673 14.9402 6.98067C14.9796 6.89404 15 6.80049 15 6.70592C15 6.61134 14.9796 6.51779 14.9402 6.43116C14.9008 6.34453 14.8432 6.2667 14.7709 6.20257Z" fill="white"/>
</svg>
