<svg width="24" height="42" viewBox="0 0 24 42" fill="none" xmlns="http://www.w3.org/2000/svg">
<path d="M20.0001 8.00001L14.0001 2.74001C13.4501 2.24805 12.738 1.97607 12.0001 1.97607C11.2622 1.97607 10.5501 2.24805 10.0001 2.74001L4.00009 8.00001C3.68246 8.28408 3.42899 8.63256 3.25657 9.02225C3.08414 9.41194 2.99671 9.83389 3.00009 10.26V19C3.00009 19.7957 3.31617 20.5587 3.87877 21.1213C4.44138 21.6839 5.20445 22 6.00009 22H18.0001C18.7957 22 19.5588 21.6839 20.1214 21.1213C20.684 20.5587 21.0001 19.7957 21.0001 19V10.25C21.0021 9.82557 20.9139 9.40555 20.7416 9.01769C20.5692 8.62983 20.3165 8.28296 20.0001 8.00001ZM14.0001 20H10.0001V15C10.0001 14.7348 10.1055 14.4804 10.293 14.2929C10.4805 14.1054 10.7349 14 11.0001 14H13.0001C13.2653 14 13.5197 14.1054 13.7072 14.2929C13.8947 14.4804 14.0001 14.7348 14.0001 15V20ZM19.0001 19C19.0001 19.2652 18.8947 19.5196 18.7072 19.7071C18.5197 19.8946 18.2653 20 18.0001 20H16.0001V15C16.0001 14.2044 15.684 13.4413 15.1214 12.8787C14.5588 12.3161 13.7957 12 13.0001 12H11.0001C10.2044 12 9.44138 12.3161 8.87877 12.8787C8.31616 13.4413 8.00009 14.2044 8.00009 15V20H6.00009C5.73488 20 5.48052 19.8946 5.29299 19.7071C5.10545 19.5196 5.00009 19.2652 5.00009 19V10.25C5.00027 10.108 5.03069 9.9677 5.08931 9.83839C5.14794 9.70907 5.23343 9.59372 5.3401 9.50001L11.3401 4.25001C11.5226 4.08969 11.7572 4.00127 12.0001 4.00127C12.243 4.00127 12.4776 4.08969 12.6601 4.25001L18.6601 9.50001C18.7668 9.59372 18.8523 9.70907 18.9109 9.83839C18.9695 9.9677 18.9999 10.108 19.0001 10.25V19Z" fill="currentColor"/>
<path d="M15.5684 39.8086H8.39648V36.832H15.5684V39.8086ZM9.31055 39.0938H14.666V37.5469H9.31055V39.0938ZM16.1777 31.125H7.72852V30.4102H16.1777V31.125ZM11.9824 31.5469C13.0762 31.5547 13.9121 31.6816 14.4902 31.9277C15.0684 32.1738 15.3574 32.5391 15.3574 33.0234C15.3574 33.5078 15.0684 33.875 14.4902 34.125C13.9121 34.375 13.0762 34.5 11.9824 34.5C10.8965 34.5 10.0605 34.375 9.47461 34.125C8.88867 33.875 8.5957 33.5078 8.5957 33.0234C8.5957 32.5391 8.88867 32.1738 9.47461 31.9277C10.0605 31.6816 10.8965 31.5547 11.9824 31.5469ZM11.9824 32.1914C11.4668 32.1914 11.0293 32.2246 10.6699 32.291C10.3105 32.3574 10.0391 32.4512 9.85547 32.5723C9.67188 32.6934 9.58008 32.8438 9.58008 33.0234C9.58008 33.1953 9.67383 33.3438 9.86133 33.4688C10.0488 33.5938 10.3223 33.6895 10.6816 33.7559C11.041 33.8223 11.4746 33.8555 11.9824 33.8555C12.4902 33.8555 12.9238 33.8223 13.2832 33.7559C13.6426 33.6895 13.916 33.5938 14.1035 33.4688C14.291 33.3438 14.3848 33.1953 14.3848 33.0234C14.3848 32.8438 14.291 32.6934 14.1035 32.5723C13.916 32.4512 13.6445 32.3574 13.2891 32.291C12.9336 32.2246 12.498 32.1914 11.9824 32.1914ZM12.4395 30.8789H11.5254V29.3789H12.4395V30.8789ZM16.7285 36.0352H7.23633V35.2969H16.7285V36.0352ZM12.4395 35.7188H11.5254V34.2656H12.4395V35.7188Z" fill="currentColor"/>
</svg>
