<svg width="306" height="103" viewBox="0 0 306 103" fill="none" xmlns="http://www.w3.org/2000/svg">
<path opacity="0.5" d="M289.385 63.8213C290.485 64.1031 291.122 65.2515 290.778 66.3338L289.756 69.5537C289.834 69.4785 289.92 69.4092 290.013 69.3475L292.92 67.429C293.865 66.8056 295.139 67.102 295.713 68.078C296.288 69.0571 295.921 70.3179 294.911 70.8364L292.155 72.2514L295.176 72.86C296.286 73.0835 296.982 74.1915 296.701 75.2882C296.419 76.3879 295.271 77.0249 294.189 76.6818L290.847 75.621C290.814 75.6104 290.782 75.5963 290.75 75.584C290.82 75.6565 290.885 75.735 290.943 75.821L292.895 78.7062C293.531 79.6466 293.246 80.9282 292.271 81.5102C291.299 82.0904 290.039 81.7373 289.51 80.7364L287.884 77.6562C287.832 77.5568 287.79 77.4545 287.758 77.3507L287.106 80.6666C286.886 81.7807 285.776 82.4811 284.676 82.1993C283.579 81.9182 282.942 80.7758 283.28 79.6953L284.318 76.3734C284.221 76.4786 284.112 76.5757 283.988 76.6578L281.08 78.5761C280.135 79.1995 278.86 78.9033 278.287 77.9271C277.712 76.948 278.079 75.6872 279.089 75.1686L282.188 73.5776C282.28 73.5305 282.374 73.4932 282.469 73.4632C282.438 73.4587 282.406 73.4562 282.375 73.4501L278.936 72.7736C277.822 72.5542 277.122 71.4433 277.404 70.3435C277.684 69.2469 278.827 68.6102 279.907 68.9477L282.84 69.8635L281.105 67.2988C280.469 66.3584 280.754 65.0768 281.729 64.4948C282.701 63.9147 283.961 64.2679 284.489 65.2687L286.117 68.3491C286.186 68.4809 286.235 68.6184 286.269 68.7571L286.957 65.3455C287.18 64.2359 288.288 63.5404 289.385 63.8213ZM286.278 69.5738C286.28 69.5734 286.283 69.5734 286.286 69.5729C286.284 69.5676 286.283 69.5622 286.282 69.5568C286.281 69.5625 286.279 69.5681 286.278 69.5738Z" fill="url(#paint0_linear_437_3489)"/>
<path opacity="0.5" d="M260.576 5.12648C260.763 3.94846 261.933 3.19473 263.083 3.5115L278.069 7.63991C279.24 7.96252 279.856 9.2461 279.374 10.3612L274.12 22.523C273.7 23.497 272.591 23.9729 271.595 23.6074L259.957 19.3366C259.06 19.0075 258.521 18.0897 258.67 17.1459L260.576 5.12648Z" fill="url(#paint1_linear_437_3489)"/>
<path opacity="0.5" d="M13.2507 77.2249C11.7802 72.7972 15.8764 67.0804 18.0836 64.947C19.3572 63.8842 21.1994 64.3302 21.0013 65.7341C20.8032 67.1379 21.4282 68.7687 23.0915 70.0276C24.7548 71.2865 26.9194 74.4558 25.9076 77.2573C24.8558 80.1692 22.865 81.0804 21.7395 81.4542C20.7438 81.7848 15.3191 83.4532 13.2507 77.2249Z" fill="url(#paint2_linear_437_3489)"/>
<path opacity="0.5" d="M13.8309 39.9297C13.4086 44.727 11.5272 52.7789 7.37926 46.6081C2.19436 38.8946 0.909731 45.4901 1.81449 49.7678" stroke="#7A9EFF" stroke-width="2" stroke-linecap="round"/>
<path opacity="0.5" d="M304.49 97.1759C302.03 99.4959 297.286 102.843 297.989 97.6696C298.867 91.2033 295.116 94.0645 293.595 96.731" stroke="#7AD1B7" stroke-width="2" stroke-linecap="round"/>
<path opacity="0.5" d="M51.9026 11.8813C54.4697 9.68052 58.2994 5.31691 53.081 5.4689C46.558 5.65888 49.7998 2.23102 52.6122 1.0003" stroke="#FFD78A" stroke-width="2" stroke-linecap="round"/>
<defs>
<linearGradient id="paint0_linear_437_3489" x1="289.359" y1="63.8147" x2="284.65" y2="82.1926" gradientUnits="userSpaceOnUse">
<stop stop-color="#FFD78A"/>
<stop offset="1" stop-color="#FFB425"/>
</linearGradient>
<linearGradient id="paint1_linear_437_3489" x1="270.695" y1="5.29641" x2="265.592" y2="21.8631" gradientUnits="userSpaceOnUse">
<stop stop-color="#C8CEFF"/>
<stop offset="1" stop-color="#808DFF"/>
</linearGradient>
<linearGradient id="paint2_linear_437_3489" x1="16.062" y1="65.5057" x2="21.5426" y2="82.0085" gradientUnits="userSpaceOnUse">
<stop stop-color="#AEE1D1"/>
<stop offset="1" stop-color="#2EECB1"/>
</linearGradient>
</defs>
</svg>
