<svg width="20" height="20" viewBox="0 0 20 20" fill="none" xmlns="http://www.w3.org/2000/svg">
<path d="M12.2178 16.4546H11.1514V9.07178H11.1045L9.04199 10.4429V9.37646L11.1514 7.97021H12.2178V16.4546Z" fill="black"/>
<g clip-path="url(#clip0_82_1586)">
<path d="M2.77246 12.108C2.77246 6.62925 9.52242 1.77434 12.8055 0.213629C14.6369 -0.499451 16.5445 0.679447 15.7965 2.17065C15.0484 3.66185 15.1423 5.7105 16.5445 7.72913C17.9466 9.74776 19.1988 14.0809 17.0118 16.8285C14.7387 19.6844 12.1563 19.9631 10.7493 19.9631C9.50447 19.9631 2.77246 19.8147 2.77246 12.108Z" fill="url(#paint0_linear_82_1586)"/>
<path d="M6.94732 12.8223C8.22073 12.8223 9.25304 11.7934 9.25304 10.5242C9.25304 9.25499 8.22073 8.22607 6.94732 8.22607C5.67391 8.22607 4.6416 9.25499 4.6416 10.5242C4.6416 11.7934 5.67391 12.8223 6.94732 12.8223Z" fill="white"/>
<path d="M13.6778 12.8223C14.9512 12.8223 15.9835 11.7934 15.9835 10.5242C15.9835 9.25499 14.9512 8.22607 13.6778 8.22607C12.4044 8.22607 11.3721 9.25499 11.3721 10.5242C11.3721 11.7934 12.4044 12.8223 13.6778 12.8223Z" fill="white"/>
<path d="M7.07275 12.1391C7.89875 12.1391 8.56835 11.4717 8.56835 10.6484C8.56835 9.82512 7.89875 9.15771 7.07275 9.15771C6.24675 9.15771 5.57715 9.82512 5.57715 10.6484C5.57715 11.4717 6.24675 12.1391 7.07275 12.1391Z" fill="black"/>
<path d="M13.8022 12.1391C14.6282 12.1391 15.2978 11.4717 15.2978 10.6484C15.2978 9.82512 14.6282 9.15771 13.8022 9.15771C12.9762 9.15771 12.3066 9.82512 12.3066 10.6484C12.3066 11.4717 12.9762 12.1391 13.8022 12.1391Z" fill="black"/>
</g>
<defs>
<linearGradient id="paint0_linear_82_1586" x1="10.3203" y1="0.0879954" x2="10.3203" y2="20.5081" gradientUnits="userSpaceOnUse">
<stop stop-color="#AEE1D1"/>
<stop offset="1" stop-color="#2EECB1"/>
</linearGradient>
<clipPath id="clip0_82_1586">
<rect width="15.4545" height="20" fill="white" transform="translate(2.77246)"/>
</clipPath>
</defs>
</svg>
