<svg width="38" height="33" viewBox="0 0 38 33" fill="none" xmlns="http://www.w3.org/2000/svg">
<path d="M20.166 20H19.0996V12.6172H19.0527L16.9902 13.9883V12.9219L19.0996 11.5156H20.166V20Z" fill="black"/>
<g clip-path="url(#clip0_81_1063)">
<path d="M7 19.9782C7 10.9383 17.9191 2.92765 23.2298 0.352488C26.1925 -0.824094 29.2782 1.12109 28.0682 3.58157C26.8582 6.04205 27.0101 9.42233 29.2782 12.7531C31.5464 16.0838 33.572 23.2334 30.0343 27.767C26.3572 32.4793 22.1797 32.9391 19.9037 32.9391C17.89 32.9391 7 32.6943 7 19.9782Z" fill="url(#paint0_linear_81_1063)"/>
<path d="M17.0303 21.8741C17.7695 22.694 19.621 23.8418 21.1129 21.8741" stroke="black" stroke-linecap="round"/>
<path d="M13.7543 21.1568C15.8142 21.1568 17.4841 19.4591 17.4841 17.3649C17.4841 15.2707 15.8142 13.573 13.7543 13.573C11.6943 13.573 10.0244 15.2707 10.0244 17.3649C10.0244 19.4591 11.6943 21.1568 13.7543 21.1568Z" fill="white"/>
<path d="M24.641 21.1568C26.7009 21.1568 28.3708 19.4591 28.3708 17.3649C28.3708 15.2707 26.7009 13.573 24.641 13.573C22.581 13.573 20.9111 15.2707 20.9111 17.3649C20.9111 19.4591 22.581 21.1568 24.641 21.1568Z" fill="white"/>
<path d="M13.9555 20.0295C15.2917 20.0295 16.3748 18.9283 16.3748 17.5699C16.3748 16.2114 15.2917 15.1102 13.9555 15.1102C12.6193 15.1102 11.5361 16.2114 11.5361 17.5699C11.5361 18.9283 12.6193 20.0295 13.9555 20.0295Z" fill="black"/>
<path d="M24.8432 20.0295C26.1794 20.0295 27.2625 18.9283 27.2625 17.5699C27.2625 16.2114 26.1794 15.1102 24.8432 15.1102C23.507 15.1102 22.4238 16.2114 22.4238 17.5699C22.4238 18.9283 23.507 20.0295 24.8432 20.0295Z" fill="black"/>
<path d="M15.0143 17.2624C15.5432 17.2624 15.972 16.8265 15.972 16.2888C15.972 15.7511 15.5432 15.3152 15.0143 15.3152C14.4854 15.3152 14.0566 15.7511 14.0566 16.2888C14.0566 16.8265 14.4854 17.2624 15.0143 17.2624Z" fill="white"/>
<path d="M25.901 17.2624C26.4299 17.2624 26.8587 16.8265 26.8587 16.2888C26.8587 15.7511 26.4299 15.3152 25.901 15.3152C25.3721 15.3152 24.9434 15.7511 24.9434 16.2888C24.9434 16.8265 25.3721 17.2624 25.901 17.2624Z" fill="white"/>
</g>
<defs>
<linearGradient id="paint0_linear_81_1063" x1="19.2097" y1="0.145192" x2="19.2097" y2="33.8383" gradientUnits="userSpaceOnUse">
<stop stop-color="#AEE1D1"/>
<stop offset="1" stop-color="#2EECB1"/>
</linearGradient>
<clipPath id="clip0_81_1063">
<rect width="25" height="33" fill="white" transform="translate(7)"/>
</clipPath>
</defs>
</svg>
