<svg width="16" height="16" viewBox="0 0 16 16" fill="none" xmlns="http://www.w3.org/2000/svg">
<path d="M8.94028 8L13.1403 3.80667C13.2658 3.68113 13.3363 3.51087 13.3363 3.33333C13.3363 3.1558 13.2658 2.98554 13.1403 2.86C13.0147 2.73447 12.8445 2.66394 12.667 2.66394C12.4894 2.66394 12.3192 2.73447 12.1936 2.86L8.00029 7.06L3.80695 2.86C3.68142 2.73447 3.51115 2.66394 3.33362 2.66394C3.15608 2.66394 2.98582 2.73447 2.86028 2.86C2.73475 2.98554 2.66422 3.1558 2.66422 3.33333C2.66422 3.51087 2.73475 3.68113 2.86028 3.80667L7.06029 8L2.86028 12.1933C2.7978 12.2553 2.7482 12.329 2.71436 12.4103C2.68051 12.4915 2.66309 12.5787 2.66309 12.6667C2.66309 12.7547 2.68051 12.8418 2.71436 12.9231C2.7482 13.0043 2.7978 13.078 2.86028 13.14C2.92226 13.2025 2.99599 13.2521 3.07723 13.2859C3.15847 13.3198 3.24561 13.3372 3.33362 13.3372C3.42163 13.3372 3.50876 13.3198 3.59 13.2859C3.67124 13.2521 3.74498 13.2025 3.80695 13.14L8.00029 8.94L12.1936 13.14C12.2556 13.2025 12.3293 13.2521 12.4106 13.2859C12.4918 13.3198 12.5789 13.3372 12.667 13.3372C12.755 13.3372 12.8421 13.3198 12.9233 13.2859C13.0046 13.2521 13.0783 13.2025 13.1403 13.14C13.2028 13.078 13.2524 13.0043 13.2862 12.9231C13.3201 12.8418 13.3375 12.7547 13.3375 12.6667C13.3375 12.5787 13.3201 12.4915 13.2862 12.4103C13.2524 12.329 13.2028 12.2553 13.1403 12.1933L8.94028 8Z" fill="#9A9A9A"/>
</svg>
