<svg width="338" height="204" viewBox="0 0 338 204" fill="none" xmlns="http://www.w3.org/2000/svg">
<g opacity="0.6">
<path opacity="0.5" d="M6.33297 181.147C3.46737 176.549 6.53498 168.98 8.44572 165.97C9.59412 164.424 11.7952 164.426 11.9538 166.064C12.1124 167.703 13.2619 169.374 15.4825 170.342C17.703 171.31 21.0095 174.299 20.63 177.737C20.2356 181.31 18.2362 182.881 17.0675 183.61C16.0335 184.254 10.3639 187.615 6.33297 181.147Z" fill="url(#paint0_linear_112_2400)"/>
<path opacity="0.5" d="M312.034 2.91771C312.183 1.7361 313.326 0.94583 314.484 1.22298L333.432 5.75678C334.612 6.03927 335.271 7.29984 334.829 8.43038L328.662 24.1977C328.275 25.1873 327.182 25.7015 326.172 25.3684L311.444 20.5063C310.535 20.2065 309.967 19.3056 310.086 18.3567L312.034 2.91771Z" fill="url(#paint1_linear_112_2400)"/>
<path opacity="0.5" d="M41.802 16.6022C42.7057 12.4198 43.0966 5.15511 37.4309 9.55575C30.3487 15.0566 30.9152 9.1594 32.951 5.69746" stroke="#FFD78A" stroke-width="2" stroke-linecap="round"/>
<path opacity="0.5" d="M246.025 181.59C247.174 181.884 247.839 183.083 247.481 184.214L246.412 187.577C246.494 187.499 246.583 187.426 246.681 187.362L249.718 185.359C250.705 184.707 252.036 185.017 252.635 186.036C253.235 187.059 252.853 188.376 251.798 188.918L248.92 190.394L252.074 191.03C253.233 191.263 253.961 192.421 253.667 193.566C253.373 194.715 252.173 195.381 251.042 195.022L247.553 193.915C247.518 193.904 247.484 193.89 247.45 193.877C247.523 193.952 247.591 194.034 247.652 194.124L249.692 197.138C250.356 198.12 250.058 199.459 249.04 200.067C248.025 200.673 246.708 200.304 246.156 199.258L244.457 196.041C244.402 195.938 244.359 195.83 244.325 195.722L243.644 199.186C243.415 200.349 242.255 201.081 241.106 200.787C239.961 200.493 239.294 199.3 239.647 198.171L240.732 194.701C240.631 194.811 240.517 194.912 240.387 194.998L237.35 197.002C236.363 197.653 235.031 197.343 234.433 196.324C233.832 195.301 234.215 193.984 235.27 193.442L238.506 191.78C238.602 191.732 238.7 191.692 238.799 191.661C238.767 191.656 238.735 191.654 238.704 191.648L235.111 190.941C233.948 190.712 233.215 189.551 233.51 188.402C233.803 187.257 234.998 186.592 236.126 186.945L239.189 187.901L237.376 185.222C236.711 184.24 237.01 182.9 238.028 182.293C239.043 181.687 240.359 182.056 240.911 183.102L242.611 186.319C242.683 186.456 242.735 186.6 242.771 186.745L243.489 183.182C243.722 182.023 244.88 181.296 246.025 181.59ZM242.779 187.598C242.782 187.597 242.784 187.597 242.787 187.597C242.786 187.591 242.785 187.585 242.783 187.58C242.782 187.586 242.78 187.592 242.779 187.598Z" fill="url(#paint2_linear_112_2400)"/>
<path opacity="0.5" d="M110.308 19.6042C111.02 19.7866 111.431 20.5292 111.209 21.2293L110.547 23.3138C110.598 23.265 110.654 23.2203 110.714 23.1803L112.596 21.9386C113.207 21.5355 114.032 21.7268 114.403 22.3582C114.775 22.9918 114.538 23.8081 113.884 24.1437L112.101 25.0588L114.056 25.4528C114.774 25.5976 115.224 26.3147 115.042 27.0242C114.86 27.7357 114.116 28.1474 113.416 27.9252L111.254 27.2391C111.233 27.2323 111.212 27.223 111.192 27.215C111.237 27.262 111.279 27.3134 111.316 27.369L112.579 29.236C112.991 29.8444 112.806 30.6734 112.176 31.0501C111.547 31.4254 110.732 31.1974 110.389 30.55L109.337 28.5564C109.303 28.4918 109.275 28.4253 109.255 28.3579L108.832 30.5049C108.69 31.2255 107.972 31.6785 107.261 31.4964C106.551 31.3145 106.139 30.5749 106.357 29.8757L107.029 27.7252C106.967 27.7938 106.896 27.8567 106.815 27.9101L104.934 29.1521C104.322 29.5555 103.497 29.3638 103.126 28.7322C102.754 28.0987 102.992 27.2824 103.645 26.9467L105.651 25.9173C105.71 25.887 105.771 25.8631 105.832 25.8437C105.812 25.8409 105.792 25.8393 105.772 25.8353L103.547 25.3974C102.826 25.2555 102.373 24.5363 102.555 23.8245C102.737 23.115 103.476 22.7027 104.176 22.9212L106.073 23.5143L104.95 21.8544C104.539 21.2461 104.723 20.417 105.353 20.0403C105.982 19.6649 106.798 19.8929 107.14 20.5406L108.192 22.534C108.237 22.6195 108.27 22.7085 108.292 22.7985L108.737 20.5907C108.881 19.8726 109.598 19.4224 110.308 19.6042ZM108.295 23.3286C108.298 23.3281 108.3 23.3279 108.303 23.3274C108.301 23.3228 108.3 23.3181 108.299 23.3134C108.298 23.3185 108.296 23.3235 108.295 23.3286Z" fill="url(#paint3_linear_112_2400)"/>
<path opacity="0.5" d="M336.197 178.271C332.544 181.025 325.667 184.821 327.381 177.969C329.524 169.404 324.054 172.694 321.612 176.054" stroke="#7AD1B7" stroke-width="2" stroke-linecap="round"/>
<path opacity="0.5" d="M171.59 9.86551C173.699 13.1315 176.49 19.1945 170.789 17.3182C163.663 14.9728 166.113 19.812 168.809 22.0893" stroke="#7A9EFF" stroke-width="2" stroke-linecap="round"/>
<path opacity="0.5" d="M111.59 170.866C113.699 174.132 116.49 180.194 110.789 178.318C103.663 175.973 106.113 180.812 108.809 183.089" stroke="#7A9EFF" stroke-width="2" stroke-linecap="round"/>
</g>
<defs>
<linearGradient id="paint0_linear_112_2400" x1="6.31569" y1="167.151" x2="16.9962" y2="184.289" gradientUnits="userSpaceOnUse">
<stop stop-color="#AEE1D1"/>
<stop offset="1" stop-color="#2EECB1"/>
</linearGradient>
<linearGradient id="paint1_linear_112_2400" x1="324.085" y1="3.14564" x2="318.58" y2="23.4113" gradientUnits="userSpaceOnUse">
<stop stop-color="#C8CEFF"/>
<stop offset="1" stop-color="#808DFF"/>
</linearGradient>
<linearGradient id="paint2_linear_112_2400" x1="245.998" y1="181.583" x2="241.079" y2="200.78" gradientUnits="userSpaceOnUse">
<stop stop-color="#FFD78A"/>
<stop offset="1" stop-color="#FFB425"/>
</linearGradient>
<linearGradient id="paint3_linear_112_2400" x1="110.291" y1="19.5998" x2="107.244" y2="31.4921" gradientUnits="userSpaceOnUse">
<stop stop-color="#FFD78A"/>
<stop offset="1" stop-color="#FFB425"/>
</linearGradient>
</defs>
</svg>
