<svg width="50" height="32" viewBox="0 0 50 32" fill="none" xmlns="http://www.w3.org/2000/svg">
<path opacity="0.5" d="M14.8311 9.81605C14.6629 8.63523 15.559 7.57057 16.7512 7.53481L32.2892 7.06887C33.5034 7.03246 34.4694 8.078 34.3372 9.28554L32.896 22.455C32.7806 23.5097 31.8617 24.2907 30.8021 24.2346L18.4221 23.579C17.4678 23.5284 16.6826 22.8099 16.5478 21.8639L14.8311 9.81605Z" fill="url(#paint0_linear_98_2939)"/>
<path opacity="0.5" d="M37.0083 15.8083C37.8107 16.0138 38.2751 16.8519 38.0246 17.6413L37.2789 19.9887C37.3357 19.934 37.3984 19.884 37.4665 19.8391L39.5872 18.4399C40.2764 17.9852 41.2061 18.2014 41.6242 18.9135C42.0434 19.6277 41.7757 20.5477 41.039 20.9259L39.0299 21.9566L41.2326 22.401C42.042 22.564 42.5492 23.372 42.3444 24.1719C42.1389 24.9741 41.3017 25.4387 40.5123 25.1884L38.0751 24.4157C38.0509 24.408 38.0279 24.3974 38.0045 24.3885C38.0552 24.4413 38.1023 24.4989 38.1446 24.5615L39.5683 26.6653C40.0324 27.3513 39.8247 28.2867 39.1137 28.7112C38.4047 29.1344 37.4856 28.8769 37.0999 28.1468L35.9134 25.9002C35.8752 25.8279 35.8447 25.7533 35.8212 25.6779L35.3458 28.0956C35.1858 28.9082 34.3756 29.4196 33.5733 29.214C32.7733 29.0091 32.3092 28.1748 32.5556 27.3866L33.3125 24.9636C33.2418 25.0406 33.1617 25.1117 33.0707 25.1718L30.95 26.571C30.2608 27.0255 29.331 26.8094 28.9129 26.0974C28.4938 25.3832 28.7614 24.4632 29.4982 24.085L31.7582 22.9251C31.8247 22.8909 31.8931 22.8631 31.9621 22.8412C31.94 22.838 31.9171 22.8364 31.8949 22.8321L29.3874 22.3377C28.5747 22.1778 28.0633 21.3675 28.2689 20.5652C28.474 19.7655 29.3074 19.3011 30.0953 19.5472L32.2338 20.2152L30.9688 18.3456C30.5048 17.6597 30.7126 16.7243 31.4235 16.2997C32.1325 15.8765 33.0516 16.134 33.4372 16.8641L34.6237 19.1107C34.6746 19.207 34.7109 19.3073 34.7359 19.4086L35.2375 16.9201C35.4006 16.1107 36.2085 15.6033 37.0083 15.8083ZM34.74 20.0065C34.7426 20.006 34.745 20.0049 34.7476 20.0044C34.7465 20 34.7449 19.9957 34.7439 19.9914C34.7428 19.9965 34.7411 20.0014 34.74 20.0065Z" fill="url(#paint1_linear_98_2939)"/>
<path opacity="0.5" d="M9.17334 19.6988C9.89767 16.3464 10.211 10.5235 5.66972 14.0508C-0.00688051 18.4598 0.447161 13.7331 2.07891 10.9582" stroke="#FFD78A" stroke-width="2" stroke-linecap="round"/>
<path opacity="0.5" d="M8.3606 26.8827C6.1683 23.365 8.51514 17.5745 9.97694 15.2722C10.8555 14.089 12.5394 14.0905 12.6608 15.3441C12.7821 16.5978 13.6615 17.876 15.3603 18.6168C17.0591 19.3576 19.5887 21.6438 19.2984 24.2741C18.9967 27.0081 17.4671 28.2097 16.5729 28.767C15.7819 29.26 11.4444 31.8309 8.3606 26.8827Z" fill="url(#paint2_linear_98_2939)"/>
<path opacity="0.5" d="M48.8958 16.1738C48.6399 19.0808 47.4998 23.9599 44.9864 20.2206C41.8445 15.5466 41.0661 19.5432 41.6143 22.1353" stroke="#7A9EFF" stroke-width="2" stroke-linecap="round"/>
<path opacity="0.5" d="M41.5499 3.98177C40.3856 7.15636 37.6365 12.27 35.9542 7.3279C33.8514 1.15024 31.7734 5.38593 31.6038 8.45117" stroke="#7AD1B7" stroke-width="2" stroke-linecap="round"/>
<defs>
<linearGradient id="paint0_linear_98_2939" x1="24.5515" y1="6.99995" x2="24.5515" y2="24.3346" gradientUnits="userSpaceOnUse">
<stop stop-color="#C8CEFF"/>
<stop offset="1" stop-color="#808DFF"/>
</linearGradient>
<linearGradient id="paint1_linear_98_2939" x1="36.9889" y1="15.8033" x2="33.5539" y2="29.2091" gradientUnits="userSpaceOnUse">
<stop stop-color="#FFD78A"/>
<stop offset="1" stop-color="#FFB425"/>
</linearGradient>
<linearGradient id="paint2_linear_98_2939" x1="8.34738" y1="16.1758" x2="16.5184" y2="29.2868" gradientUnits="userSpaceOnUse">
<stop stop-color="#AEE1D1"/>
<stop offset="1" stop-color="#2EECB1"/>
</linearGradient>
</defs>
</svg>
