<svg width="316" height="216" viewBox="0 0 316 216" fill="none" xmlns="http://www.w3.org/2000/svg">
<g opacity="0.6">
<path opacity="0.5" d="M6.33297 123.147C3.46737 118.549 6.53498 110.98 8.44572 107.97C9.59412 106.424 11.7952 106.426 11.9538 108.064C12.1124 109.703 13.2619 111.374 15.4825 112.342C17.703 113.31 21.0095 116.299 20.63 119.737C20.2356 123.31 18.2362 124.881 17.0675 125.61C16.0335 126.254 10.3639 129.615 6.33297 123.147Z" fill="url(#paint0_linear_479_3022)"/>
<path opacity="0.5" d="M287.033 32.9177C287.182 31.7361 288.325 30.9458 289.483 31.223L308.431 35.7568C309.611 36.0393 310.27 37.2998 309.828 38.4304L303.661 54.1977C303.274 55.1873 302.181 55.7015 301.171 55.3684L286.443 50.5063C285.534 50.2065 284.966 49.3056 285.085 48.3567L287.033 32.9177Z" fill="url(#paint1_linear_479_3022)"/>
<path opacity="0.5" d="M27.8028 35.1003C28.7064 30.9178 29.0973 23.6532 23.4316 28.0538C16.3495 33.5546 16.9159 27.6574 18.9517 24.1955" stroke="#FFD78A" stroke-width="2" stroke-linecap="round"/>
<path opacity="0.5" d="M254.026 184.59C255.175 184.884 255.84 186.083 255.482 187.214L254.413 190.577C254.495 190.499 254.584 190.426 254.682 190.362L257.719 188.359C258.706 187.707 260.037 188.017 260.636 189.036C261.236 190.059 260.854 191.376 259.799 191.918L256.921 193.394L260.075 194.03C261.234 194.263 261.962 195.421 261.668 196.566C261.374 197.715 260.174 198.381 259.043 198.022L255.554 196.915C255.519 196.904 255.485 196.89 255.451 196.877C255.524 196.952 255.592 197.034 255.653 197.124L257.693 200.138C258.357 201.12 258.059 202.459 257.041 203.067C256.026 203.673 254.709 203.304 254.157 202.258L252.458 199.041C252.403 198.938 252.36 198.83 252.326 198.722L251.645 202.186C251.416 203.349 250.256 204.081 249.107 203.787C247.962 203.493 247.295 202.3 247.648 201.171L248.733 197.701C248.632 197.811 248.518 197.912 248.387 197.998L245.351 200.002C244.364 200.653 243.032 200.343 242.434 199.324C241.833 198.301 242.216 196.984 243.271 196.442L246.507 194.78C246.603 194.732 246.701 194.692 246.8 194.661C246.768 194.656 246.736 194.654 246.705 194.648L243.112 193.941C241.949 193.712 241.216 192.551 241.511 191.402C241.804 190.257 242.999 189.592 244.127 189.945L247.19 190.901L245.377 188.222C244.712 187.24 245.011 185.9 246.029 185.293C247.044 184.687 248.36 185.056 248.912 186.102L250.612 189.319C250.684 189.456 250.736 189.6 250.772 189.745L251.49 186.182C251.723 185.023 252.881 184.296 254.026 184.59ZM250.78 190.598C250.783 190.597 250.785 190.597 250.788 190.597C250.787 190.591 250.786 190.585 250.784 190.58C250.783 190.586 250.781 190.592 250.78 190.598Z" fill="url(#paint2_linear_479_3022)"/>
<path opacity="0.5" d="M95.3075 1.60421C96.0191 1.78661 96.4307 2.52916 96.2087 3.22934L95.5465 5.31382C95.5971 5.26496 95.6531 5.22034 95.7138 5.18026L97.5956 3.93857C98.2069 3.53549 99.0316 3.72678 99.4025 4.35821C99.7745 4.99177 99.5371 5.80809 98.8835 6.14366L97.1005 7.05884L99.0551 7.45282C99.7731 7.59756 100.223 8.31468 100.042 9.02421C99.8591 9.73571 99.1157 10.1474 98.4155 9.92515L96.2535 9.2391C96.2321 9.2323 96.2118 9.22296 96.1911 9.21505C96.2362 9.26199 96.2783 9.31338 96.316 9.36902L97.5786 11.236C97.9901 11.8444 97.8058 12.6734 97.1753 13.0501C96.5465 13.4254 95.7312 13.1974 95.389 12.55L94.3363 10.5564C94.3021 10.4918 94.275 10.4253 94.2541 10.3579L93.8319 12.5049C93.6899 13.2255 92.9719 13.6785 92.2603 13.4964C91.5507 13.3145 91.1384 12.5749 91.3569 11.8757L92.029 9.72523C91.9661 9.79376 91.8952 9.85672 91.8142 9.91014L89.9334 11.1521C89.322 11.5555 88.4965 11.3638 88.1256 10.7322C87.7536 10.0987 87.9911 9.28236 88.6446 8.94674L90.6504 7.91729C90.7095 7.88699 90.7702 7.86309 90.8315 7.84374C90.8117 7.84088 90.7911 7.83926 90.7712 7.83533L88.5466 7.39737C87.8257 7.25545 87.372 6.53627 87.5544 5.82452C87.7363 5.11499 88.4759 4.70269 89.1751 4.92118L91.0726 5.51426L89.9494 3.85443C89.5381 3.24608 89.7224 2.41704 90.3528 2.04035C90.9817 1.66487 91.7979 1.89291 92.14 2.54064L93.1918 4.53402C93.2369 4.61949 93.2692 4.70848 93.2914 4.79846L93.7361 2.59074C93.8807 1.8726 94.5979 1.42237 95.3075 1.60421ZM93.2947 5.32856C93.2971 5.32813 93.2996 5.32785 93.302 5.32742C93.3008 5.32277 93.2997 5.3181 93.2985 5.31343C93.2975 5.31853 93.2958 5.32348 93.2947 5.32856Z" fill="url(#paint3_linear_479_3022)"/>
<path opacity="0.5" d="M314.197 171.256C310.544 174.01 303.667 177.806 305.381 170.954C307.524 162.389 302.054 165.679 299.612 169.039" stroke="#7AD1B7" stroke-width="2" stroke-linecap="round"/>
<path opacity="0.5" d="M193.175 6.26395C195.283 9.52997 198.074 15.5929 192.373 13.7166C185.247 11.3712 187.697 16.2105 190.393 18.4877" stroke="#7A9EFF" stroke-width="2" stroke-linecap="round"/>
<path opacity="0.5" d="M52.1745 202.264C54.2829 205.53 57.0745 211.593 51.3733 209.717C44.2469 207.371 46.697 212.21 49.3934 214.488" stroke="#7A9EFF" stroke-width="2" stroke-linecap="round"/>
</g>
<defs>
<linearGradient id="paint0_linear_479_3022" x1="6.31569" y1="109.151" x2="16.9962" y2="126.289" gradientUnits="userSpaceOnUse">
<stop stop-color="#AEE1D1"/>
<stop offset="1" stop-color="#2EECB1"/>
</linearGradient>
<linearGradient id="paint1_linear_479_3022" x1="299.084" y1="33.1456" x2="293.579" y2="53.4113" gradientUnits="userSpaceOnUse">
<stop stop-color="#C8CEFF"/>
<stop offset="1" stop-color="#808DFF"/>
</linearGradient>
<linearGradient id="paint2_linear_479_3022" x1="253.999" y1="184.583" x2="249.08" y2="203.78" gradientUnits="userSpaceOnUse">
<stop stop-color="#FFD78A"/>
<stop offset="1" stop-color="#FFB425"/>
</linearGradient>
<linearGradient id="paint3_linear_479_3022" x1="95.2904" y1="1.59983" x2="92.2432" y2="13.4921" gradientUnits="userSpaceOnUse">
<stop stop-color="#FFD78A"/>
<stop offset="1" stop-color="#FFB425"/>
</linearGradient>
</defs>
</svg>
