<svg width="16" height="16" viewBox="0 0 16 16" fill="none" xmlns="http://www.w3.org/2000/svg">
<path d="M10.3592 7.52667L6.58584 3.76C6.52387 3.69752 6.45013 3.64792 6.36889 3.61408C6.28765 3.58023 6.20052 3.56281 6.11251 3.56281C6.0245 3.56281 5.93736 3.58023 5.85612 3.61408C5.77488 3.64792 5.70115 3.69752 5.63917 3.76C5.51501 3.88491 5.44531 4.05388 5.44531 4.23C5.44531 4.40613 5.51501 4.5751 5.63917 4.7L8.93917 8.03334L5.63917 11.3333C5.51501 11.4582 5.44531 11.6272 5.44531 11.8033C5.44531 11.9795 5.51501 12.1484 5.63917 12.2733C5.70092 12.3363 5.77455 12.3864 5.8558 12.4208C5.93705 12.4551 6.0243 12.473 6.11251 12.4733C6.20071 12.473 6.28797 12.4551 6.36922 12.4208C6.45047 12.3864 6.5241 12.3363 6.58584 12.2733L10.3592 8.50667C10.4268 8.44424 10.4808 8.36847 10.5178 8.28414C10.5547 8.19981 10.5738 8.10874 10.5738 8.01667C10.5738 7.9246 10.5547 7.83353 10.5178 7.7492C10.4808 7.66487 10.4268 7.5891 10.3592 7.52667Z" fill="white"/>
</svg>
