<svg width="26" height="42" viewBox="0 0 26 42" fill="none" xmlns="http://www.w3.org/2000/svg">
<path d="M13 2C11.0605 2.00369 9.16393 2.57131 7.54128 3.63374C5.91862 4.69617 4.63994 6.20754 3.86099 7.98377C3.08204 9.76 2.83643 11.7244 3.15408 13.6378C3.47173 15.5511 4.33893 17.3308 5.65005 18.76C6.58647 19.775 7.72299 20.5851 8.98799 21.1392C10.253 21.6933 11.619 21.9793 13 21.9793C14.3811 21.9793 15.7471 21.6933 17.0121 21.1392C18.2771 20.5851 19.4136 19.775 20.35 18.76C21.6612 17.3308 22.5284 15.5511 22.846 13.6378C23.1637 11.7244 22.9181 9.76 22.1391 7.98377C21.3602 6.20754 20.0815 4.69617 18.4588 3.63374C16.8362 2.57131 14.9396 2.00369 13 2ZM13 20C10.9285 19.9969 8.93896 19.1903 7.45005 17.75C7.90209 16.6495 8.67108 15.7083 9.6593 15.0459C10.6475 14.3835 11.8104 14.0298 13 14.0298C14.1897 14.0298 15.3526 14.3835 16.3408 15.0459C17.329 15.7083 18.098 16.6495 18.55 17.75C17.0611 19.1903 15.0716 19.9969 13 20ZM11 10C11 9.60444 11.1173 9.21776 11.3371 8.88886C11.5569 8.55996 11.8692 8.30362 12.2347 8.15224C12.6001 8.00087 13.0023 7.96126 13.3902 8.03843C13.7782 8.1156 14.1346 8.30608 14.4143 8.58579C14.694 8.86549 14.8844 9.22186 14.9616 9.60982C15.0388 9.99778 14.9992 10.3999 14.8478 10.7654C14.6964 11.1308 14.4401 11.4432 14.1112 11.6629C13.7823 11.8827 13.3956 12 13 12C12.4696 12 11.9609 11.7893 11.5858 11.4142C11.2108 11.0391 11 10.5304 11 10ZM19.91 16C19.0166 14.4718 17.6415 13.283 16 12.62C16.5092 12.0427 16.841 11.3307 16.9555 10.5694C17.0701 9.80822 16.9625 9.03011 16.6458 8.3285C16.3291 7.62688 15.8166 7.03156 15.17 6.61397C14.5233 6.19637 13.7698 5.97425 13 5.97425C12.2303 5.97425 11.4768 6.19637 10.8301 6.61397C10.1835 7.03156 9.67102 7.62688 9.3543 8.3285C9.03758 9.03011 8.93004 9.80822 9.04458 10.5694C9.15912 11.3307 9.49088 12.0427 10 12.62C8.35865 13.283 6.98352 14.4718 6.09005 16C5.37799 14.7871 5.00177 13.4065 5.00005 12C5.00005 9.87827 5.8429 7.84344 7.34319 6.34315C8.84349 4.84285 10.8783 4 13 4C15.1218 4 17.1566 4.84285 18.6569 6.34315C20.1572 7.84344 21 9.87827 21 12C20.9983 13.4065 20.6221 14.7871 19.91 16Z" fill="currentColor"/>
<path d="M6.91211 30.5156L9.77148 37.5H9.87695L12.7363 30.5156H14.002V39H13.0059V32.5898H12.9238L10.2871 39H9.34961L6.71289 32.5898H6.64258V39H5.64648V30.5156H6.91211ZM16.3926 41.3906C16.1895 41.3906 16.002 41.3828 15.8301 41.3672V40.4648L16.0176 40.4766C16.0801 40.4844 16.1816 40.4883 16.3223 40.4883C16.4941 40.4883 16.6367 40.4707 16.75 40.4355C16.8633 40.4004 16.9766 40.3125 17.0898 40.1719C17.2031 40.0312 17.3105 39.8164 17.4121 39.5273L17.5996 39.0469L15.2441 32.6367H16.3457L18.0801 37.6875H18.1504L19.8848 32.6367H20.9863L18.291 39.9141C18.1035 40.4062 17.8535 40.7754 17.541 41.0215C17.2285 41.2676 16.8457 41.3906 16.3926 41.3906Z" fill="currentColor"/>
</svg>
