<svg width="38" height="33" viewBox="0 0 38 33" fill="none" xmlns="http://www.w3.org/2000/svg">
<g clip-path="url(#clip0_381_127)">
<mask id="mask0_381_127" style="mask-type:luminance" maskUnits="userSpaceOnUse" x="0" y="0" width="38" height="33">
<path d="M38 0H0V33H38V0Z" fill="white"/>
</mask>
<g mask="url(#mask0_381_127)">
<path d="M0.789451 6.71356C0.368297 3.74152 2.64939 1.06592 5.68233 0.974464L32.1506 0.176356C35.2425 0.0831191 37.7053 2.71322 37.3742 5.75525L34.9262 28.2482C34.6361 30.9127 32.2894 32.887 29.5837 32.7431L8.4786 31.619C6.04386 31.4893 4.04286 29.6727 3.70445 27.2843L0.789451 6.71356Z" fill="url(#paint0_linear_381_127)"/>
<path d="M17.6104 17.073C18.1511 17.6077 19.6031 18.2646 21.0861 16.6146" stroke="black" stroke-linecap="round"/>
<path d="M13.2078 15.9271C15.5113 15.9271 17.3786 14.0803 17.3786 11.8021C17.3786 9.52395 15.5113 7.67712 13.2078 7.67712C10.9044 7.67712 9.03711 9.52395 9.03711 11.8021C9.03711 14.0803 10.9044 15.9271 13.2078 15.9271Z" fill="white"/>
<path opacity="0.88" d="M25.0252 15.9271C27.3286 15.9271 29.1959 14.0803 29.1959 11.8021C29.1959 9.52395 27.3286 7.67712 25.0252 7.67712C22.7218 7.67712 20.8545 9.52395 20.8545 11.8021C20.8545 14.0803 22.7218 15.9271 25.0252 15.9271Z" fill="white"/>
<path opacity="0.88" d="M13.3234 13.8645C14.5391 13.8645 15.5246 12.8898 15.5246 11.6875C15.5246 10.4851 14.5391 9.51038 13.3234 9.51038C12.1077 9.51038 11.1221 10.4851 11.1221 11.6875C11.1221 12.8898 12.1077 13.8645 13.3234 13.8645Z" fill="black"/>
<path opacity="0.88" d="M25.1407 13.8645C26.3564 13.8645 27.342 12.8898 27.342 11.6875C27.342 10.4851 26.3564 9.51038 25.1407 9.51038C23.925 9.51038 22.9395 10.4851 22.9395 11.6875C22.9395 12.8898 23.925 13.8645 25.1407 13.8645Z" fill="black"/>
</g>
<circle cx="13.96" cy="9.96" r="0.96" fill="white"/>
<circle cx="25.96" cy="9.96" r="0.96" fill="white"/>
</g>
<defs>
<linearGradient id="paint0_linear_381_127" x1="19.0717" y1="0.17395" x2="19.0717" y2="32.7505" gradientUnits="userSpaceOnUse">
<stop stop-color="#8AF8D7"/>
<stop offset="1" stop-color="#7AD1B7"/>
</linearGradient>
<clipPath id="clip0_381_127">
<rect width="38" height="33" fill="white"/>
</clipPath>
</defs>
</svg>
