<svg width="26" height="42" viewBox="0 0 26 42" fill="none" xmlns="http://www.w3.org/2000/svg">
<path d="M13 6C12.7348 6 12.4804 6.10536 12.2929 6.29289C12.1054 6.48043 12 6.73478 12 7V17C12 17.2652 12.1054 17.5196 12.2929 17.7071C12.4804 17.8946 12.7348 18 13 18C13.2652 18 13.5196 17.8946 13.7071 17.7071C13.8946 17.5196 14 17.2652 14 17V7C14 6.73478 13.8946 6.48043 13.7071 6.29289C13.5196 6.10536 13.2652 6 13 6ZM8 12C7.73478 12 7.48043 12.1054 7.29289 12.2929C7.10536 12.4804 7 12.7348 7 13V17C7 17.2652 7.10536 17.5196 7.29289 17.7071C7.48043 17.8946 7.73478 18 8 18C8.26522 18 8.51957 17.8946 8.70711 17.7071C8.89464 17.5196 9 17.2652 9 17V13C9 12.7348 8.89464 12.4804 8.70711 12.2929C8.51957 12.1054 8.26522 12 8 12ZM18 10C17.7348 10 17.4804 10.1054 17.2929 10.2929C17.1054 10.4804 17 10.7348 17 11V17C17 17.2652 17.1054 17.5196 17.2929 17.7071C17.4804 17.8946 17.7348 18 18 18C18.2652 18 18.5196 17.8946 18.7071 17.7071C18.8946 17.5196 19 17.2652 19 17V11C19 10.7348 18.8946 10.4804 18.7071 10.2929C18.5196 10.1054 18.2652 10 18 10ZM20 2H6C5.20435 2 4.44129 2.31607 3.87868 2.87868C3.31607 3.44129 3 4.20435 3 5V19C3 19.7956 3.31607 20.5587 3.87868 21.1213C4.44129 21.6839 5.20435 22 6 22H20C20.7956 22 21.5587 21.6839 22.1213 21.1213C22.6839 20.5587 23 19.7956 23 19V5C23 4.20435 22.6839 3.44129 22.1213 2.87868C21.5587 2.31607 20.7956 2 20 2ZM21 19C21 19.2652 20.8946 19.5196 20.7071 19.7071C20.5196 19.8946 20.2652 20 20 20H6C5.73478 20 5.48043 19.8946 5.29289 19.7071C5.10536 19.5196 5 19.2652 5 19V5C5 4.73478 5.10536 4.48043 5.29289 4.29289C5.48043 4.10536 5.73478 4 6 4H20C20.2652 4 20.5196 4.10536 20.7071 4.29289C20.8946 4.48043 21 4.73478 21 5V19Z" fill="currentColor"/>
<path d="M12.5781 35.8008H3.03906V35.0508H12.5781V35.8008ZM8.33594 37.8398H7.42188V35.4141H8.33594V37.8398ZM11.5117 39.7266H4.25781V38.9531H11.5117V39.7266ZM5.17188 39.2461H4.25781V36.8789H5.17188V39.2461ZM5.23047 31.207H10.3867V29.8711H11.3008V34.0312H4.31641V29.8711H5.23047V31.207ZM10.3867 33.2812V31.9102H5.23047V33.2812H10.3867ZM21.332 32.4961H18.8125V31.7227H21.332V32.4961ZM16.8203 31.1719C16.8203 31.8281 16.7012 32.4414 16.4629 33.0117C16.2246 33.582 15.8887 34.0781 15.4551 34.5C15.0215 34.9219 14.5156 35.2461 13.9375 35.4727L13.4336 34.7109C13.957 34.5234 14.418 34.2539 14.8164 33.9023C15.2148 33.5508 15.5234 33.1387 15.7422 32.666C15.9609 32.1934 16.0703 31.6953 16.0703 31.1719V30.0703H16.8203V31.1719ZM16.9727 31.207C16.9727 31.6758 17.082 32.1309 17.3008 32.5723C17.5195 33.0137 17.8242 33.4004 18.2148 33.7324C18.6055 34.0645 19.0508 34.3164 19.5508 34.4883L19.0469 35.2266C18.4922 35.0156 18.002 34.7109 17.5762 34.3125C17.1504 33.9141 16.8203 33.4473 16.5859 32.9121C16.3516 32.377 16.2344 31.8086 16.2344 31.207V30.0703H16.9727V31.207ZM22.0586 39.9492H21.1328V37.0078H15.0508V36.2695H22.0586V39.9492ZM22.0586 35.6953H21.1328V29.5312H22.0586V35.6953Z" fill="currentColor"/>
</svg>
