<svg width="375" height="293" viewBox="0 0 375 293" fill="none" xmlns="http://www.w3.org/2000/svg">
<path opacity="0.8" d="M-5.45258 115.68C-5.314 102.584 6.16483 92.5089 19.1681 94.0697L172.367 112.459C185.623 114.05 194.418 126.986 191.021 139.899L156.952 269.415C153.978 280.723 142.677 287.729 131.226 285.364L10.7942 260.49C0.489201 258.361 -6.86586 249.234 -6.75452 238.712L-5.45258 115.68Z" fill="url(#paint0_linear_229_2236)"/>
<path opacity="0.8" d="M244.382 180.036C235.16 127.476 291.529 69.5753 320.293 49.0945C336.606 39.1807 356.829 47.2899 352.187 62.8506C347.545 78.4113 351.892 97.9073 368.697 114.92C385.502 131.933 404.769 171.401 388.483 201.43C371.556 232.642 347.332 239.648 333.878 242.008C321.976 244.097 257.355 253.969 244.382 180.036Z" fill="url(#paint1_linear_229_2236)"/>
<path opacity="0.8" d="M197.297 0C209.723 0.000236564 219.594 10.4455 218.893 22.8516L216.808 59.7422C217.428 58.7398 218.147 57.7798 218.966 56.877L244.577 28.6436C252.901 19.4681 267.215 19.1459 275.943 27.9375C284.697 36.7554 284.239 51.1193 274.939 59.3604L249.574 81.8389L283.242 80.083C295.614 79.4375 306 89.2947 306 101.684C306 114.11 295.555 123.981 283.148 123.28L244.855 121.115C244.502 121.095 244.152 121.065 243.804 121.026C244.711 121.595 245.585 122.244 246.411 122.977L274.939 148.259C284.239 156.5 284.698 170.864 275.943 179.682C267.215 188.473 252.901 188.151 244.577 178.976L218.966 150.742C218.147 149.839 217.428 148.879 216.808 147.876L218.893 184.768C219.594 197.174 209.723 207.619 197.297 207.619C184.908 207.619 175.05 197.233 175.695 184.861L177.676 146.886C176.94 148.249 176.03 149.546 174.944 150.742L149.333 178.976C141.01 188.151 126.695 188.473 117.967 179.682C109.213 170.864 109.671 156.5 118.971 148.259L147.499 122.977C148.319 122.25 149.186 121.604 150.086 121.039C149.774 121.072 149.461 121.097 149.145 121.115L110.852 123.28C98.4454 123.981 88 114.11 88 101.684C88.0001 89.2947 98.3857 79.4375 110.758 80.083L144.33 81.834L118.971 59.3604C109.671 51.1193 109.213 36.7554 117.967 27.9375C126.695 19.1459 141.01 19.4681 149.333 28.6436L174.944 56.877C176.03 58.0733 176.94 59.3693 177.676 60.7324L175.695 22.7578C175.05 10.3857 184.908 0 197.297 0ZM180.003 69.4062C180.017 69.4 180.03 69.3939 180.044 69.3877C180.029 69.3607 180.015 69.3337 180 69.3066C180.001 69.3398 180.002 69.373 180.003 69.4062Z" fill="#FFD78A"/>
<path opacity="0.5" d="M237.008 247.126C243.591 241.621 253.16 230.607 238.772 230.59C220.788 230.569 228.95 221.935 236.437 218.965" stroke="#FFD78A" stroke-width="5" stroke-linecap="round"/>
<path opacity="0.5" d="M46.5339 68.5465C44.3473 77.9355 42.9081 94.425 54.6445 85.2716C69.315 73.8297 67.6481 87.1769 63.261 94.7503" stroke="#7AD1B7" stroke-width="5" stroke-linecap="round"/>
<path opacity="0.5" d="M295.769 10.4626C294.891 20.4418 290.977 37.1912 282.349 24.3548C271.563 8.30936 268.891 22.0293 270.773 30.9276" stroke="#7A9EFF" stroke-width="5" stroke-linecap="round"/>
<defs>
<linearGradient id="paint0_linear_229_2236" x1="96.5912" y1="100.235" x2="69.856" y2="277.227" gradientUnits="userSpaceOnUse">
<stop stop-color="#C8CEFF"/>
<stop offset="1" stop-color="#8D99FF"/>
</linearGradient>
<linearGradient id="paint1_linear_229_2236" x1="296.319" y1="52.059" x2="330.694" y2="247.956" gradientUnits="userSpaceOnUse">
<stop stop-color="#AEE1D1"/>
<stop offset="1" stop-color="#2EECB1"/>
</linearGradient>
</defs>
</svg>
