<svg width="20" height="20" viewBox="0 0 20 20" fill="none" xmlns="http://www.w3.org/2000/svg">
<g clip-path="url(#clip0_85_2148)">
<path d="M10.1451 0C11.2211 0 12.0759 0.949687 12.0151 2.07767L11.8171 5.75514C11.874 5.65853 11.94 5.56599 12.0152 5.47897L14.4435 2.66817C15.1644 1.83379 16.4041 1.80451 17.1601 2.60397L17.3254 2.77884C18.0836 3.58071 18.0437 4.88687 17.2384 5.63626L14.8233 7.8836L18.0294 7.70793C19.1007 7.64927 20 8.54553 20 9.67193V9.919C20 11.0488 19.0956 11.9463 18.0213 11.8825L14.3904 11.6671C14.3581 11.6651 14.326 11.6623 14.2942 11.6586C14.3773 11.7133 14.4573 11.7759 14.5331 11.8463L17.2384 14.3637C18.0437 15.1131 18.0836 16.4193 17.3254 17.2211L17.1601 17.396C16.4041 18.1955 15.1644 18.1662 14.4435 17.3319L12.0152 14.521C11.94 14.434 11.874 14.3414 11.8171 14.2448L12.0151 17.9223C12.0759 19.0503 11.2211 20 10.1451 20H9.90978C8.83702 20 7.98343 19.0557 8.0393 17.9309L8.22718 14.1493C8.15962 14.2807 8.07619 14.4057 7.97657 14.521L5.54824 17.3319C4.82738 18.1662 3.58761 18.1955 2.83172 17.396L2.66636 17.2211C1.90822 16.4193 1.94799 15.1131 2.75335 14.3637L5.45864 11.8463C5.53387 11.7763 5.61326 11.7142 5.69581 11.6597C5.66726 11.6629 5.63851 11.6653 5.60956 11.6671L1.97873 11.8825C0.904464 11.9463 0 11.0488 0 9.919V9.67193C5.42272e-06 8.54553 0.899295 7.64927 1.97061 7.70793L5.16791 7.88307L2.75335 5.63626C1.94799 4.88687 1.90822 3.58071 2.66636 2.77884L2.83172 2.60397C3.58761 1.80451 4.82738 1.83379 5.54824 2.66817L7.97657 5.47897C8.07619 5.59427 8.15962 5.71921 8.22718 5.85059L8.0393 2.06914C7.98343 0.94426 8.83702 5.69385e-06 9.90978 0H10.1451ZM8.4407 6.68587C8.44197 6.68527 8.44317 6.68467 8.44438 6.68413C8.44305 6.6816 8.44171 6.67907 8.44044 6.67647C8.44051 6.6796 8.44064 6.68273 8.4407 6.68587Z" fill="url(#paint0_linear_85_2148)"/>
<path d="M7.96123 11.1178C8.74613 11.1178 9.38241 10.4497 9.38241 9.62555C9.38241 8.8014 8.74613 8.1333 7.96123 8.1333C7.17633 8.1333 6.54004 8.8014 6.54004 9.62555C6.54004 10.4497 7.17633 11.1178 7.96123 11.1178Z" fill="white"/>
<path d="M12.1097 11.1178C12.8946 11.1178 13.5309 10.4497 13.5309 9.62555C13.5309 8.8014 12.8946 8.1333 12.1097 8.1333C11.3248 8.1333 10.6885 8.8014 10.6885 9.62555C10.6885 10.4497 11.3248 11.1178 12.1097 11.1178Z" fill="white"/>
<path d="M8.03807 10.6742C8.54719 10.6742 8.95992 10.2408 8.95992 9.70623C8.95992 9.17165 8.54719 8.73828 8.03807 8.73828C7.52894 8.73828 7.11621 9.17165 7.11621 9.70623C7.11621 10.2408 7.52894 10.6742 8.03807 10.6742Z" fill="black"/>
<path d="M12.1865 10.6742C12.6956 10.6742 13.1084 10.2408 13.1084 9.70623C13.1084 9.17165 12.6956 8.73828 12.1865 8.73828C11.6774 8.73828 11.2646 9.17165 11.2646 9.70623C11.2646 10.2408 11.6774 10.6742 12.1865 10.6742Z" fill="black"/>
</g>
<defs>
<linearGradient id="paint0_linear_85_2148" x1="10" y1="0" x2="10" y2="20" gradientUnits="userSpaceOnUse">
<stop stop-color="#FFD78A"/>
<stop offset="1" stop-color="#FFB21E"/>
</linearGradient>
<clipPath id="clip0_85_2148">
<rect width="20" height="20" fill="white"/>
</clipPath>
</defs>
</svg>
