<svg width="38" height="33" viewBox="0 0 38 33" fill="none" xmlns="http://www.w3.org/2000/svg">
<path d="M26.166 21H25.0996V13.6172H25.0527L22.9902 14.9883V13.9219L25.0996 12.5156H26.166V21Z" fill="black"/>
<g clip-path="url(#clip0_82_1637)">
<path d="M19.7539 0C21.6369 0 23.1328 1.56698 23.0264 3.42815L22.68 9.49598C22.7796 9.33658 22.895 9.18389 23.0266 9.04031L27.2761 4.40247C28.5377 3.02575 30.7072 2.97744 32.0301 4.29656L32.3194 4.58509C33.6462 5.90817 33.5766 8.06333 32.1672 9.29983L27.9408 13.0079L33.5514 12.7181C35.4262 12.6213 37 14.1001 37 15.9587V16.3664C37 18.2305 35.4172 19.7115 33.5372 19.6062L27.1832 19.2507C27.1267 19.2475 27.0704 19.2427 27.0148 19.2367C27.1603 19.327 27.3003 19.4302 27.4329 19.5465L32.1672 23.7002C33.5766 24.9367 33.6462 27.0918 32.3194 28.4149L32.0301 28.7034C30.7072 30.0225 28.5377 29.9742 27.2761 28.5976L23.0266 23.9597C22.895 23.8161 22.7796 23.6633 22.68 23.5039L23.0264 29.5718C23.1328 31.433 21.6369 33 19.7539 33H19.3421C17.4648 33 15.971 31.442 16.0688 29.5859L16.3976 23.3464C16.2793 23.5632 16.1333 23.7695 15.959 23.9597L11.7094 28.5976C10.4479 29.9742 8.27832 30.0225 6.95551 28.7034L6.66612 28.4149C5.33938 27.0918 5.40899 24.9367 6.81836 23.7002L11.5526 19.5465C11.6843 19.431 11.8232 19.3284 11.9677 19.2386C11.9177 19.2437 11.8674 19.2478 11.8167 19.2507L5.46278 19.6062C3.58281 19.7115 2 18.2305 2 16.3664V15.9587C2.00001 14.1001 3.57377 12.6213 5.44857 12.7181L11.0438 13.0071L6.81836 9.29983C5.40899 8.06333 5.33938 5.90817 6.66612 4.58509L6.95551 4.29656C8.27832 2.97744 10.4479 3.02575 11.7094 4.40247L15.959 9.04031C16.1333 9.23054 16.2793 9.43669 16.3976 9.65347L16.0688 3.41408C15.971 1.55803 17.4648 9.39486e-06 19.3421 0H19.7539ZM16.7712 11.0317C16.7734 11.0307 16.7756 11.0297 16.7777 11.0288C16.7753 11.0246 16.773 11.0205 16.7708 11.0162C16.7709 11.0213 16.7711 11.0265 16.7712 11.0317Z" fill="url(#paint0_linear_82_1637)"/>
<path d="M18.1162 18.8103C18.6092 19.3427 19.8438 20.0881 20.8385 18.8103" stroke="black" stroke-linecap="round"/>
<path d="M15.9314 18.3443C17.305 18.3443 18.4185 17.242 18.4185 15.8821C18.4185 14.5223 17.305 13.4199 15.9314 13.4199C14.5578 13.4199 13.4443 14.5223 13.4443 15.8821C13.4443 17.242 14.5578 18.3443 15.9314 18.3443Z" fill="white"/>
<path d="M23.1912 18.3443C24.5648 18.3443 25.6783 17.242 25.6783 15.8821C25.6783 14.5223 24.5648 13.4199 23.1912 13.4199C21.8176 13.4199 20.7041 14.5223 20.7041 15.8821C20.7041 17.242 21.8176 18.3443 23.1912 18.3443Z" fill="white"/>
<path d="M16.0664 17.6124C16.9573 17.6124 17.6796 16.8974 17.6796 16.0153C17.6796 15.1333 16.9573 14.4182 16.0664 14.4182C15.1754 14.4182 14.4531 15.1333 14.4531 16.0153C14.4531 16.8974 15.1754 17.6124 16.0664 17.6124Z" fill="black"/>
<path d="M23.3252 17.6124C24.2161 17.6124 24.9384 16.8974 24.9384 16.0153C24.9384 15.1333 24.2161 14.4182 23.3252 14.4182C22.4342 14.4182 21.7119 15.1333 21.7119 16.0153C21.7119 16.8974 22.4342 17.6124 23.3252 17.6124Z" fill="black"/>
<path d="M16.7714 15.8156C17.1241 15.8156 17.41 15.5326 17.41 15.1835C17.41 14.8343 17.1241 14.5513 16.7714 14.5513C16.4187 14.5513 16.1328 14.8343 16.1328 15.1835C16.1328 15.5326 16.4187 15.8156 16.7714 15.8156Z" fill="white"/>
<path d="M24.0312 15.8156C24.3838 15.8156 24.6697 15.5326 24.6697 15.1835C24.6697 14.8343 24.3838 14.5513 24.0312 14.5513C23.6785 14.5513 23.3926 14.8343 23.3926 15.1835C23.3926 15.5326 23.6785 15.8156 24.0312 15.8156Z" fill="white"/>
</g>
<defs>
<linearGradient id="paint0_linear_82_1637" x1="19.5" y1="0" x2="19.5" y2="33" gradientUnits="userSpaceOnUse">
<stop stop-color="#FFD78A"/>
<stop offset="1" stop-color="#FFB21E"/>
</linearGradient>
<clipPath id="clip0_82_1637">
<rect width="35" height="33" fill="white" transform="translate(2)"/>
</clipPath>
</defs>
</svg>
