<svg width="283" height="91" viewBox="0 0 283 91" fill="none" xmlns="http://www.w3.org/2000/svg">
<path opacity="0.5" d="M4.84497 85.8827C2.65268 82.365 4.99952 76.5745 6.46131 74.2722C7.33988 73.089 9.0238 73.0905 9.14515 74.3442C9.2665 75.5979 10.1459 76.8761 11.8447 77.6169C13.5435 78.3577 16.0731 80.6439 15.7828 83.2742C15.481 86.0081 13.9514 87.2098 13.0573 87.767C12.2663 88.26 7.92876 90.8309 4.84497 85.8827Z" fill="url(#paint0_linear_468_2574)"/>
<path opacity="0.5" d="M33.6582 15.6988C34.3825 12.3464 34.6959 6.52353 30.1546 10.0508C24.478 14.4599 24.932 9.73311 26.5638 6.95824" stroke="#FFD78A" stroke-width="2" stroke-linecap="round"/>
<path opacity="0.5" d="M242.821 2.83363C242.776 1.64173 243.778 0.675858 244.968 0.764086L260.47 1.91397C261.682 2.00382 262.534 3.14402 262.277 4.33131L259.476 17.28C259.252 18.317 258.257 18.9984 257.209 18.8326L244.964 16.895C244.02 16.7457 243.314 15.9495 243.278 14.9946L242.821 2.83363Z" fill="url(#paint1_linear_468_2574)"/>
<path opacity="0.5" d="M275.492 73.8083C276.295 74.0139 276.759 74.8519 276.508 75.6414L275.763 77.9887C275.82 77.9341 275.882 77.8841 275.95 77.8392L278.071 76.44C278.76 75.9852 279.69 76.2015 280.108 76.9135C280.527 77.6277 280.26 78.5477 279.523 78.926L277.514 79.9566L279.716 80.4011C280.526 80.5641 281.033 81.3721 280.828 82.1719C280.623 82.9741 279.786 83.4388 278.996 83.1884L276.559 82.4157C276.535 82.408 276.512 82.3975 276.488 82.3885C276.539 82.4414 276.586 82.499 276.628 82.5616L278.052 84.6654C278.516 85.3513 278.309 86.2867 277.598 86.7113C276.889 87.1345 275.969 86.8769 275.584 86.1469L274.397 83.9002C274.359 83.828 274.329 83.7534 274.305 83.678L273.83 86.0956C273.67 86.9082 272.859 87.4196 272.057 87.2141C271.257 87.0091 270.793 86.1749 271.039 85.3867L271.796 82.9636C271.726 83.0406 271.646 83.1117 271.555 83.1718L269.434 84.571C268.745 85.0255 267.815 84.8094 267.397 84.0975C266.978 83.3833 267.245 82.4632 267.982 82.085L270.242 80.9251C270.309 80.891 270.377 80.8631 270.446 80.8413C270.424 80.8381 270.401 80.8365 270.379 80.8321L267.871 80.3378C267.059 80.1778 266.547 79.3676 266.753 78.5652C266.958 77.7656 267.791 77.3012 268.579 77.5473L270.718 78.2152L269.453 76.3456C268.989 75.6597 269.196 74.7243 269.907 74.2997C270.616 73.8765 271.535 74.1341 271.921 74.8641L273.108 77.1108C273.158 77.207 273.195 77.3074 273.22 77.4087L273.721 74.9201C273.884 74.1107 274.692 73.6034 275.492 73.8083ZM273.224 78.0065C273.226 78.0061 273.229 78.0049 273.231 78.0044C273.23 78.0001 273.229 77.9958 273.228 77.9914C273.227 77.9965 273.225 78.0015 273.224 78.0065Z" fill="url(#paint2_linear_468_2574)"/>
<path opacity="0.5" d="M277.923 39.0363C278.434 42.3788 278.492 48.1843 274.635 44.6662C269.813 40.2686 270.036 44.9814 271.366 47.7484" stroke="#7AD1B7" stroke-width="2" stroke-linecap="round"/>
<path opacity="0.5" d="M15.4824 50.8442C13.0789 52.4993 8.59206 54.7295 9.87239 50.4098C11.4728 45.0101 7.89655 46.9567 6.24813 49.0309" stroke="#7A9EFF" stroke-width="2" stroke-linecap="round"/>
<defs>
<linearGradient id="paint0_linear_468_2574" x1="4.83175" y1="75.1758" x2="13.0027" y2="88.2868" gradientUnits="userSpaceOnUse">
<stop stop-color="#AEE1D1"/>
<stop offset="1" stop-color="#2EECB1"/>
</linearGradient>
<linearGradient id="paint1_linear_468_2574" x1="252.781" y1="1.04202" x2="250.982" y2="18.283" gradientUnits="userSpaceOnUse">
<stop stop-color="#C8CEFF"/>
<stop offset="1" stop-color="#808DFF"/>
</linearGradient>
<linearGradient id="paint2_linear_468_2574" x1="275.473" y1="73.8033" x2="272.038" y2="87.2091" gradientUnits="userSpaceOnUse">
<stop stop-color="#FFD78A"/>
<stop offset="1" stop-color="#FFB425"/>
</linearGradient>
</defs>
</svg>
