<svg width="33" height="33" viewBox="0 0 33 33" fill="none" xmlns="http://www.w3.org/2000/svg">
<rect width="33" height="33" rx="16.5" fill="currentColor"/>
<path d="M21.4959 15.8788L17.1209 11.5038C17.0377 11.4241 16.9396 11.3617 16.8322 11.32C16.6191 11.2325 16.3802 11.2325 16.1672 11.32C16.0598 11.3617 15.9616 11.4241 15.8784 11.5038L11.5034 15.8788C11.4218 15.9604 11.3571 16.0572 11.313 16.1638C11.2688 16.2704 11.2461 16.3847 11.2461 16.5C11.2461 16.733 11.3387 16.9565 11.5034 17.1213C11.6682 17.286 11.8917 17.3786 12.1247 17.3786C12.3577 17.3786 12.5812 17.286 12.7459 17.1213L15.6247 14.2338V20.875C15.6247 21.1071 15.7169 21.3297 15.881 21.4938C16.0451 21.6578 16.2676 21.75 16.4997 21.75C16.7317 21.75 16.9543 21.6578 17.1184 21.4938C17.2825 21.3297 17.3747 21.1071 17.3747 20.875V14.2338L20.2534 17.1213C20.3348 17.2033 20.4315 17.2684 20.5382 17.3128C20.6448 17.3572 20.7592 17.3801 20.8747 17.3801C20.9902 17.3801 21.1046 17.3572 21.2112 17.3128C21.3178 17.2684 21.4146 17.2033 21.4959 17.1213C21.5779 17.0399 21.643 16.9432 21.6875 16.8365C21.7319 16.7299 21.7547 16.6155 21.7547 16.5C21.7547 16.3845 21.7319 16.2702 21.6875 16.1635C21.643 16.0569 21.5779 15.9601 21.4959 15.8788Z" fill="white"/>
</svg>
