<svg width="7" height="7" viewBox="0 0 7 7" fill="none" xmlns="http://www.w3.org/2000/svg">
<path d="M4.32588 3.50239L6.83422 0.999887C6.94406 0.890043 7.00577 0.741063 7.00577 0.58572C7.00577 0.430378 6.94406 0.281397 6.83422 0.171553C6.72437 0.0617097 6.57539 0 6.42005 0C6.26471 0 6.11573 0.0617097 6.00588 0.171553L3.50338 2.67989L1.00088 0.171553C0.891039 0.0617097 0.742058 -1.15739e-09 0.586716 0C0.431373 1.15739e-09 0.282393 0.0617097 0.172549 0.171553C0.0627052 0.281397 0.000995518 0.430378 0.000995517 0.58572C0.000995516 0.741063 0.0627052 0.890043 0.172549 0.999887L2.68088 3.50239L0.172549 6.00489C0.117874 6.05912 0.0744776 6.12363 0.0448625 6.19472C0.0152474 6.2658 0 6.34205 0 6.41905C0 6.49606 0.0152474 6.5723 0.0448625 6.64339C0.0744776 6.71447 0.117874 6.77899 0.172549 6.83322C0.226777 6.88789 0.291295 6.93129 0.362379 6.96091C0.433464 6.99052 0.509709 7.00577 0.586716 7.00577C0.663723 7.00577 0.739968 6.99052 0.811052 6.96091C0.882137 6.93129 0.946654 6.88789 1.00088 6.83322L3.50338 4.32489L6.00588 6.83322C6.06011 6.88789 6.12463 6.93129 6.19571 6.96091C6.2668 6.99052 6.34304 7.00577 6.42005 7.00577C6.49706 7.00577 6.5733 6.99052 6.64439 6.96091C6.71547 6.93129 6.77999 6.88789 6.83422 6.83322C6.88889 6.77899 6.93229 6.71447 6.9619 6.64339C6.99152 6.5723 7.00677 6.49606 7.00677 6.41905C7.00677 6.34205 6.99152 6.2658 6.9619 6.19472C6.93229 6.12363 6.88889 6.05912 6.83422 6.00489L4.32588 3.50239Z" fill="currentColor"/>
</svg>
